<svg width="164" height="29" viewBox="0 0 164 29" fill="none" xmlns="http://www.w3.org/2000/svg">
<path d="M26.2598 0C27.7734 8.86589e-05 29 1.22755 29 2.74121V26.2598C28.9999 27.7734 27.7734 28.9999 26.2598 29H2.74121C1.22755 29 8.80221e-05 27.7734 0 26.2598V2.74121C0 1.2275 1.2275 0 2.74121 0H26.2598ZM12.7793 4C12.542 4.00001 12.3212 4.12249 12.1963 4.32422L2.10254 20.6348C2.03564 20.743 2 20.8679 2 20.9951V24.3145C2 24.6929 2.30712 25 2.68555 25H7.02539C7.26495 25 7.48713 24.8747 7.61133 24.6699L13.6035 14.7764C13.7094 14.6016 13.7313 14.3882 13.6641 14.1953L12.0049 9.43555C11.9391 9.2469 11.9583 9.039 12.0586 8.86621L12.79 7.6084C12.8488 7.50724 12.9994 7.5214 13.0381 7.63184L18.9561 24.541C19.0522 24.8158 19.3114 24.9999 19.6025 25H24.3145C24.6929 25 25 24.6929 25 24.3145V20.917C25 20.84 24.9873 20.7631 24.9619 20.6904L19.2773 4.45898C19.1812 4.18433 18.9218 4.00015 18.6309 4H12.7793Z" fill="white"/>
<path d="M34.361 22L44.2061 6.65139H48.4818L52.1874 22H47.8678L45.127 8.71249H46.8373L38.9437 22H34.361ZM38.6587 19.018L40.4128 15.8167H47.9117L48.3941 19.018H38.6587ZM53.4401 22L56.5098 6.65139H60.8513L58.4832 18.5575H65.8067L65.105 22H53.4401ZM66.823 22L69.8927 6.65139H76.383C78.371 6.65139 79.9059 7.08261 80.9876 7.94506C82.0693 8.8075 82.6102 10.0208 82.6102 11.5849C82.6102 12.8712 82.3032 13.9968 81.6892 14.9616C81.0753 15.9263 80.1982 16.6718 79.058 17.1981C77.9179 17.7243 76.573 17.9874 75.0236 17.9874H70.0462L72.3485 16.0579L71.1645 22H66.823ZM72.2389 16.5622L70.7259 14.5669H75.2209C76.171 14.5669 76.9092 14.3403 77.4355 13.8872C77.9617 13.434 78.2248 12.7908 78.2248 11.9576C78.2248 11.3144 78.0129 10.8394 77.589 10.5324C77.1651 10.2254 76.573 10.0719 75.8129 10.0719H71.6469L73.9492 8.01084L72.2389 16.5622ZM82.7755 22L85.8452 6.65139H90.1866L87.1169 22H82.7755ZM90.2057 22L93.2754 6.65139H96.8494L103.055 16.913L101.564 16.8692L103.603 6.65139H107.857L104.787 22H101.213L95.0295 11.7384L96.4986 11.7822L94.4594 22H90.2057ZM112.41 22L122.255 6.65139H126.531L130.237 22H125.917L123.176 8.71249H124.886L116.993 22H112.41ZM116.708 19.018L118.462 15.8167H125.961L126.443 19.018H116.708ZM131.489 22L134.559 6.65139H141.225C142.833 6.65139 144.207 6.91451 145.347 7.44075C146.502 7.96698 147.386 8.71249 148 9.67726C148.614 10.6274 148.921 11.7676 148.921 13.0978C148.921 14.4573 148.687 15.6851 148.219 16.7815C147.752 17.8632 147.094 18.7987 146.246 19.5881C145.398 20.3628 144.389 20.9621 143.22 21.3861C142.051 21.7954 140.757 22 139.339 22H131.489ZM136.532 18.5356H139.471C140.567 18.5356 141.488 18.309 142.233 17.8559C142.979 17.4027 143.549 16.7888 143.944 16.014C144.338 15.2247 144.536 14.3403 144.536 13.3609C144.536 12.6739 144.389 12.0892 144.097 11.6068C143.819 11.1244 143.395 10.759 142.825 10.5105C142.27 10.2473 141.576 10.1158 140.742 10.1158H138.199L136.532 18.5356ZM155.327 22.307C154.45 22.307 153.61 22.2339 152.806 22.0877C152.002 21.9561 151.271 21.7661 150.613 21.5176C149.955 21.2545 149.392 20.9695 148.925 20.6625L150.635 17.4173C151.161 17.7389 151.702 18.0167 152.258 18.2506C152.828 18.4698 153.405 18.6379 153.99 18.7549C154.574 18.8718 155.159 18.9303 155.744 18.9303C156.299 18.9303 156.774 18.8791 157.169 18.7768C157.564 18.6599 157.863 18.4991 158.068 18.2944C158.273 18.0898 158.375 17.8486 158.375 17.5708C158.375 17.2639 158.236 17.0227 157.958 16.8473C157.695 16.6572 157.345 16.4964 156.906 16.3649C156.467 16.2333 155.978 16.1017 155.437 15.9702C154.911 15.824 154.377 15.6559 153.836 15.4659C153.31 15.2612 152.828 15.0127 152.389 14.7204C151.951 14.4134 151.592 14.026 151.315 13.5583C151.052 13.0905 150.92 12.5131 150.92 11.8261C150.92 10.7151 151.22 9.75035 151.819 8.93175C152.418 8.11316 153.266 7.47729 154.363 7.02414C155.473 6.57099 156.782 6.34442 158.287 6.34442C159.384 6.34442 160.407 6.46136 161.357 6.69524C162.307 6.91451 163.126 7.2361 163.813 7.66001L162.234 10.8832C161.635 10.5032 160.97 10.2181 160.239 10.0281C159.523 9.82344 158.784 9.72111 158.024 9.72111C157.44 9.72111 156.935 9.78689 156.511 9.91845C156.102 10.05 155.788 10.2327 155.568 10.4666C155.364 10.6859 155.262 10.9344 155.262 11.2121C155.262 11.5045 155.393 11.7457 155.656 11.9357C155.919 12.1257 156.27 12.2865 156.709 12.4181C157.162 12.5496 157.651 12.6885 158.178 12.8347C158.719 12.9662 159.252 13.127 159.778 13.3171C160.305 13.4925 160.794 13.7337 161.247 14.0406C161.701 14.333 162.059 14.7058 162.322 15.1589C162.585 15.6121 162.717 16.1748 162.717 16.8473C162.717 17.9436 162.417 18.901 161.818 19.7196C161.218 20.5382 160.363 21.1741 159.252 21.6272C158.141 22.0804 156.833 22.307 155.327 22.307Z" fill="white"/>
</svg>
