<svg width="24" height="24" viewBox="0 0 24 24" fill="none" xmlns="http://www.w3.org/2000/svg">
<path d="M22.2802 4.28063C22.3853 4.17573 22.4568 4.04204 22.4858 3.89648C22.5148 3.75092 22.4999 3.60002 22.4431 3.46291C22.3863 3.32579 22.29 3.20861 22.1666 3.12621C22.0432 3.04381 21.898 2.99988 21.7496 3H2.24961C2.10119 2.99988 1.95607 3.04381 1.83263 3.12621C1.70918 3.20861 1.61296 3.32579 1.55615 3.46291C1.49933 3.60002 1.48448 3.75092 1.51347 3.89648C1.54245 4.04204 1.61398 4.17573 1.71899 4.28063L11.2496 13.8103V19.5H8.24961C8.0507 19.5 7.85994 19.579 7.71929 19.7197C7.57863 19.8603 7.49961 20.0511 7.49961 20.25C7.49961 20.4489 7.57863 20.6397 7.71929 20.7803C7.85994 20.921 8.0507 21 8.24961 21H15.7496C15.9485 21 16.1393 20.921 16.2799 20.7803C16.4206 20.6397 16.4996 20.4489 16.4996 20.25C16.4996 20.0511 16.4206 19.8603 16.2799 19.7197C16.1393 19.579 15.9485 19.5 15.7496 19.5H12.7496V13.8103L22.2802 4.28063ZM4.05993 4.5H19.9393L18.4393 6H5.55993L4.05993 4.5ZM11.9996 12.4397L7.05993 7.5H16.9393L11.9996 12.4397Z" fill="#A49781"/>
</svg>
