<svg width="40" height="40" viewBox="0 0 40 40" fill="none" xmlns="http://www.w3.org/2000/svg">
<path d="M25.625 12.5C26.4903 12.5 27.3362 12.2434 28.0556 11.7627C28.7751 11.282 29.3358 10.5987 29.667 9.79924C29.9981 8.99982 30.0847 8.12015 29.9159 7.27148C29.7471 6.42282 29.3305 5.64326 28.7186 5.03141C28.1067 4.41956 27.3272 4.00288 26.4785 3.83407C25.6299 3.66526 24.7502 3.7519 23.9508 4.08303C23.1513 4.41416 22.4681 4.97492 21.9873 5.69438C21.5066 6.41385 21.25 7.25971 21.25 8.125C21.25 9.28532 21.7109 10.3981 22.5314 11.2186C23.3519 12.0391 24.4647 12.5 25.625 12.5ZM25.625 6.25C25.9958 6.25 26.3584 6.35997 26.6667 6.566C26.975 6.77202 27.2154 7.06486 27.3573 7.40747C27.4992 7.75008 27.5363 8.12708 27.464 8.4908C27.3916 8.85451 27.2131 9.1886 26.9508 9.45083C26.6886 9.71305 26.3545 9.89163 25.9908 9.96397C25.6271 10.0363 25.2501 9.99919 24.9075 9.85728C24.5649 9.71536 24.272 9.47504 24.066 9.1667C23.86 8.85835 23.75 8.49584 23.75 8.125C23.75 7.62772 23.9475 7.15081 24.2992 6.79918C24.6508 6.44755 25.1277 6.25 25.625 6.25ZM31.25 21.25C30.0139 21.25 28.8055 21.6166 27.7777 22.3033C26.7499 22.9901 25.9488 23.9662 25.4758 25.1082C25.0027 26.2503 24.8789 27.5069 25.1201 28.7193C25.3613 29.9317 25.9565 31.0453 26.8306 31.9194C27.7047 32.7935 28.8183 33.3888 30.0307 33.6299C31.2431 33.8711 32.4997 33.7473 33.6418 33.2743C34.7838 32.8012 35.7599 32.0001 36.4467 30.9723C37.1334 29.9445 37.5 28.7361 37.5 27.5C37.5 25.8424 36.8415 24.2527 35.6694 23.0806C34.4973 21.9085 32.9076 21.25 31.25 21.25ZM31.25 31.25C30.5083 31.25 29.7833 31.0301 29.1666 30.618C28.5499 30.206 28.0693 29.6203 27.7855 28.9351C27.5016 28.2498 27.4274 27.4958 27.5721 26.7684C27.7168 26.041 28.0739 25.3728 28.5984 24.8484C29.1228 24.3239 29.791 23.9668 30.5184 23.8221C31.2458 23.6774 31.9998 23.7516 32.6851 24.0355C33.3703 24.3193 33.956 24.7999 34.368 25.4166C34.7801 26.0333 35 26.7583 35 27.5C35 28.4946 34.6049 29.4484 33.9017 30.1517C33.1984 30.8549 32.2446 31.25 31.25 31.25ZM8.75 21.25C7.51387 21.25 6.3055 21.6166 5.27769 22.3033C4.24988 22.9901 3.4488 23.9662 2.97576 25.1082C2.50271 26.2503 2.37894 27.5069 2.62009 28.7193C2.86125 29.9317 3.45651 31.0453 4.33059 31.9194C5.20466 32.7935 6.31831 33.3888 7.53069 33.6299C8.74307 33.8711 9.99974 33.7473 11.1418 33.2743C12.2838 32.8012 13.2599 32.0001 13.9467 30.9723C14.6334 29.9445 15 28.7361 15 27.5C15 26.6792 14.8383 25.8665 14.5243 25.1082C14.2102 24.3499 13.7498 23.661 13.1694 23.0806C12.5891 22.5002 11.9001 22.0398 11.1418 21.7258C10.3835 21.4117 9.57076 21.25 8.75 21.25ZM8.75 31.25C8.00832 31.25 7.2833 31.0301 6.66661 30.618C6.04993 30.206 5.56928 29.6203 5.28545 28.9351C5.00163 28.2498 4.92736 27.4958 5.07206 26.7684C5.21675 26.041 5.57391 25.3728 6.09835 24.8484C6.6228 24.3239 7.29099 23.9668 8.01841 23.8221C8.74584 23.6774 9.49984 23.7516 10.1851 24.0355C10.8703 24.3193 11.456 24.7999 11.868 25.4166C12.2801 26.0333 12.5 26.7583 12.5 27.5C12.5 28.4946 12.1049 29.4484 11.4017 30.1517C10.6984 30.8549 9.74457 31.25 8.75 31.25ZM30 18.75H23.75C23.5858 18.7501 23.4232 18.7179 23.2714 18.6552C23.1197 18.5924 22.9818 18.5004 22.8656 18.3844L18.75 14.2672L15.5172 17.5L20.8844 22.8656C21.0004 22.9818 21.0924 23.1197 21.1552 23.2714C21.2179 23.4232 21.2501 23.5858 21.25 23.75V31.25C21.25 31.5815 21.1183 31.8995 20.8839 32.1339C20.6495 32.3683 20.3315 32.5 20 32.5C19.6685 32.5 19.3505 32.3683 19.1161 32.1339C18.8817 31.8995 18.75 31.5815 18.75 31.25V24.2672L12.8656 18.3844C12.7494 18.2683 12.6572 18.1304 12.5943 17.9787C12.5314 17.8269 12.499 17.6643 12.499 17.5C12.499 17.3357 12.5314 17.1731 12.5943 17.0213C12.6572 16.8696 12.7494 16.7317 12.8656 16.6156L17.8656 11.6156C17.9817 11.4994 18.1196 11.4072 18.2713 11.3443C18.4231 11.2814 18.5857 11.249 18.75 11.249C18.9143 11.249 19.0769 11.2814 19.2287 11.3443C19.3804 11.4072 19.5183 11.4994 19.6344 11.6156L24.2672 16.25H30C30.3315 16.25 30.6495 16.3817 30.8839 16.6161C31.1183 16.8505 31.25 17.1685 31.25 17.5C31.25 17.8315 31.1183 18.1495 30.8839 18.3839C30.6495 18.6183 30.3315 18.75 30 18.75Z" fill="#A49781"/>
</svg>
