<svg width="40" height="40" viewBox="0 0 40 40" fill="none" xmlns="http://www.w3.org/2000/svg">
<path d="M32.0827 16.1984L28.6811 4.64687C28.6049 4.38807 28.447 4.16087 28.231 3.99922C28.015 3.83757 27.7524 3.75014 27.4827 3.75H12.517C12.2472 3.75014 11.9847 3.83757 11.7687 3.99922C11.5527 4.16087 11.3948 4.38807 11.3186 4.64687L7.91703 16.1984C7.38334 17.969 7.35541 19.8535 7.83639 21.6391C8.31737 23.4247 9.28809 25.0402 10.6389 26.3031C12.8609 28.3869 15.716 29.6679 18.7498 29.9422V36.25H13.7498C13.4183 36.25 13.1004 36.3817 12.866 36.6161C12.6315 36.8505 12.4998 37.1685 12.4998 37.5C12.4998 37.8315 12.6315 38.1495 12.866 38.3839C13.1004 38.6183 13.4183 38.75 13.7498 38.75H26.2498C26.5814 38.75 26.8993 38.6183 27.1337 38.3839C27.3681 38.1495 27.4998 37.8315 27.4998 37.5C27.4998 37.1685 27.3681 36.8505 27.1337 36.6161C26.8993 36.3817 26.5814 36.25 26.2498 36.25H21.2498V29.9422C24.2837 29.6676 27.1386 28.3867 29.3608 26.3031C30.7116 25.0402 31.6823 23.4247 32.1633 21.6391C32.6443 19.8535 32.6163 17.969 32.0827 16.1984ZM13.4514 6.25H26.5483L29.6873 16.9047C29.7014 16.9516 29.7139 16.9984 29.7264 17.0453C26.3795 18.2453 22.6108 16.7953 20.5655 15.7594C16.6295 13.7672 13.5045 13.5141 11.1998 13.8953L13.4514 6.25ZM27.6561 24.4766C25.5805 26.4201 22.8434 27.5015 19.9998 27.5015C17.1563 27.5015 14.4192 26.4201 12.3436 24.4766C11.3328 23.5293 10.6069 22.3183 10.248 20.9803C9.88906 19.6424 9.91135 18.2307 10.3123 16.9047L10.3827 16.6672C12.2577 16.0328 15.2373 15.8641 19.4342 17.9906C21.1764 18.8734 23.9905 19.9984 27.0014 19.9984C28.0077 20.0033 29.0097 19.8666 29.978 19.5922C29.8504 21.4556 29.0206 23.2012 27.6561 24.4766Z" fill="#A49781"/>
</svg>
