<svg width="16" height="16" viewBox="0 0 16 16" fill="none" xmlns="http://www.w3.org/2000/svg">
<path d="M14.6293 5.25398C14.6163 4.70085 14.5127 4.15358 14.3226 3.63398C14.1548 3.18852 13.8907 2.7856 13.5493 2.45398C13.2177 2.11249 12.8147 1.84842 12.3693 1.68065C11.8497 1.49054 11.3024 1.38695 10.7493 1.37398C10.0426 1.33398 9.81594 1.33398 8.0026 1.33398C6.18927 1.33398 5.9626 1.33398 5.25594 1.37398C4.7028 1.38695 4.15554 1.49054 3.63594 1.68065C3.19048 1.84842 2.78755 2.11249 2.45594 2.45398C2.11422 2.7841 1.85206 3.18761 1.68927 3.63398C1.49338 4.15221 1.38741 4.70008 1.37594 5.25398C1.33594 5.96065 1.33594 6.18732 1.33594 8.00065C1.33594 9.81398 1.33594 10.0407 1.37594 10.7473C1.38741 11.3012 1.49338 11.8491 1.68927 12.3673C1.85206 12.8137 2.11422 13.2172 2.45594 13.5473C2.78755 13.8888 3.19048 14.1529 3.63594 14.3207C4.15554 14.5108 4.7028 14.6144 5.25594 14.6273C5.9626 14.6673 6.18927 14.6673 8.0026 14.6673C9.81594 14.6673 10.0426 14.6673 10.7493 14.6273C11.3024 14.6144 11.8497 14.5108 12.3693 14.3207C12.8115 14.1467 13.2133 13.8835 13.5493 13.5474C13.8854 13.2113 14.1486 12.8096 14.3226 12.3673C14.5127 11.8477 14.6163 11.3005 14.6293 10.7473C14.6293 10.0407 14.6693 9.81398 14.6693 8.00065C14.6693 6.18732 14.6693 5.96065 14.6293 5.25398ZM13.4293 10.6673C13.4244 11.0905 13.3478 11.5098 13.2026 11.9073C13.0911 12.1949 12.9208 12.456 12.7027 12.6741C12.4846 12.8922 12.2235 13.0625 11.9359 13.174C11.5384 13.3192 11.1191 13.3958 10.6959 13.4007C10.0293 13.434 9.7826 13.4406 8.02927 13.4406C6.27594 13.4406 6.02927 13.4407 5.3626 13.4007C4.92309 13.4105 4.48528 13.3428 4.06927 13.2007C3.78173 13.0891 3.52059 12.9189 3.3025 12.7007C3.08442 12.4827 2.91416 12.2215 2.8026 11.934C2.65444 11.5281 2.57774 11.0995 2.57594 10.6673C2.57594 10.0007 2.53594 9.75398 2.53594 8.00065C2.53594 6.24732 2.53594 6.00065 2.57594 5.33398C2.57774 4.90184 2.65444 4.47327 2.8026 4.06732C2.91416 3.77978 3.08442 3.51864 3.3025 3.30055C3.52059 3.08246 3.78173 2.91221 4.06927 2.80065C4.47522 2.65248 4.90379 2.57579 5.33594 2.57398C6.0026 2.57398 6.24927 2.53398 8.0026 2.53398C9.75594 2.53398 10.0026 2.53398 10.6693 2.57398C11.0925 2.57884 11.5117 2.65548 11.9093 2.80065C12.1968 2.91221 12.4579 3.08246 12.676 3.30055C12.8941 3.51864 13.0644 3.77978 13.1759 4.06732C13.3332 4.47165 13.4189 4.90026 13.4293 5.33398C13.4626 6.00065 13.4693 6.24732 13.4693 8.00065C13.4693 9.75398 13.4626 10.0007 13.4293 10.6673Z" fill="white"/>
<path d="M7.99698 4.57227C7.31925 4.57227 6.65674 4.77324 6.09323 5.14977C5.52971 5.52629 5.09051 6.06147 4.83115 6.6876C4.57179 7.31373 4.50394 8.00273 4.63615 8.66747C4.76837 9.33213 5.09473 9.94273 5.57396 10.4219C6.05319 10.9012 6.66378 11.2275 7.32845 11.3597C7.99318 11.492 8.68218 11.4241 9.30831 11.1647C9.93445 10.9054 10.4696 10.4662 10.8462 9.90267C11.2226 9.3392 11.4236 8.67667 11.4236 7.99893C11.4236 7.09013 11.0626 6.21854 10.42 5.57591C9.77738 4.93329 8.90578 4.57227 7.99698 4.57227ZM7.99698 10.2189C7.55791 10.2189 7.12871 10.0887 6.76365 9.8448C6.39854 9.60087 6.11399 9.25413 5.94597 8.84847C5.77794 8.44287 5.73398 7.99647 5.81964 7.5658C5.90529 7.1352 6.11673 6.7396 6.4272 6.42915C6.73765 6.11869 7.13325 5.90725 7.56385 5.82159C7.99451 5.73593 8.44091 5.77989 8.84651 5.94792C9.25218 6.11595 9.59891 6.40049 9.84285 6.7656C10.0868 7.13067 10.217 7.55987 10.217 7.99893C10.217 8.29047 10.1596 8.57913 10.048 8.84847C9.93645 9.11787 9.77291 9.36253 9.56678 9.56873C9.36058 9.77487 9.11591 9.9384 8.84651 10.0499C8.57718 10.1615 8.28851 10.2189 7.99698 10.2189Z" fill="white"/>
<path d="M11.5578 3.63867C11.3996 3.63867 11.2449 3.68559 11.1133 3.77349C10.9818 3.8614 10.8793 3.98635 10.8187 4.13253C10.7581 4.27871 10.7423 4.43956 10.7732 4.59474C10.8041 4.74993 10.8802 4.89247 10.9921 5.00435C11.104 5.11624 11.2465 5.19243 11.4017 5.2233C11.5569 5.25416 11.7177 5.23833 11.8639 5.17777C12.0101 5.11723 12.1351 5.01469 12.223 4.88313C12.3109 4.75157 12.3578 4.59689 12.3578 4.43867C12.3578 4.2265 12.2735 4.02301 12.1235 3.87299C11.9735 3.72295 11.77 3.63867 11.5578 3.63867Z" fill="white"/>
</svg>
