<svg width="140" height="37" viewBox="0 0 140 37" fill="none" xmlns="http://www.w3.org/2000/svg">
<path d="M7.7041 7.19666L14.163 12.7147C14.5464 13.0423 14.7674 13.523 14.7674 14.0293V18.188L8.3086 12.67C7.9251 12.3424 7.7041 11.8617 7.7041 11.3553V7.19666Z" fill="white"/>
<path d="M7.7041 32.1965L14.163 26.6785C14.5464 26.3509 14.7674 25.8702 14.7674 25.3639V21.2052L8.3086 26.7232C7.9251 27.0508 7.7041 27.5315 7.7041 28.0379V32.1965Z" fill="white"/>
<path d="M0 13.0157L6.371 18.4282C6.67987 18.6907 7.07106 18.8346 7.47519 18.8346H12.6131L6.25781 13.4233C5.94872 13.1601 5.55699 13.0157 5.15216 13.0157H0Z" fill="white"/>
<path d="M0 26.3776L6.33181 20.9681C6.64125 20.7037 7.03388 20.5586 7.43963 20.5586H12.6284L6.25744 25.9712C5.94856 26.2336 5.55741 26.3776 5.15323 26.3776H0Z" fill="white"/>
<path d="M23.5438 7.19666L17.0849 12.7147C16.7015 13.0423 16.4805 13.523 16.4805 14.0293V18.188L22.9393 12.67C23.3228 12.3424 23.5438 11.8617 23.5438 11.3553V7.19666Z" fill="white"/>
<path d="M23.5438 32.1965L17.0849 26.6785C16.7015 26.3509 16.4805 25.8702 16.4805 25.3639V21.2052L22.9393 26.7232C23.3228 27.0508 23.5438 27.5315 23.5438 28.0379V32.1965Z" fill="white"/>
<path d="M31.2494 13.0155L24.8784 18.4281C24.5695 18.6905 24.1783 18.8345 23.7742 18.8345H18.6362L24.9915 13.4231C25.3007 13.1599 25.6924 13.0155 26.0972 13.0155H31.2494Z" fill="white"/>
<path d="M31.2486 26.3777L24.9167 20.9682C24.6073 20.7039 24.2147 20.5587 23.8089 20.5587H18.6201L24.9911 25.9713C25.3 26.2337 25.6911 26.3777 26.0953 26.3777H31.2486Z" fill="white"/>
<path d="M82.9861 12.6146C82.573 12.6146 82.2267 12.4747 81.9467 12.1949C81.6667 11.9151 81.5273 11.5687 81.5273 11.1557C81.5273 10.7426 81.6667 10.3962 81.9467 10.1164C82.2267 9.83662 82.573 9.69672 82.9861 9.69672C83.3861 9.69672 83.7261 9.83662 84.0055 10.1164C84.2855 10.3962 84.4255 10.7426 84.4255 11.1557C84.4255 11.5687 84.2855 11.9151 84.0055 12.1949C83.7261 12.4747 83.3861 12.6146 82.9861 12.6146Z" fill="white"/>
<path d="M84.1088 14.0735V25.0855H81.8301V14.0735H84.1088Z" fill="white"/>
<path fill-rule="evenodd" clip-rule="evenodd" d="M90.2546 14.4133C89.5884 14.7598 89.0615 15.1861 88.6752 15.6924V14.0736H86.3965V30.3218H88.6752V23.4868C89.0884 23.993 89.6215 24.4194 90.2746 24.7658C90.9271 25.0989 91.674 25.2655 92.5134 25.2655C93.4727 25.2655 94.3459 25.0256 95.1321 24.546C95.9315 24.053 96.5577 23.3735 97.0109 22.5075C97.464 21.6281 97.6902 20.6355 97.6902 19.5296C97.6902 18.4238 97.464 17.4445 97.0109 16.5918C96.5577 15.739 95.9315 15.0795 95.1321 14.6132C94.3459 14.1335 93.4727 13.8937 92.5134 13.8937C91.674 13.8937 90.9209 14.067 90.2546 14.4133ZM94.8921 17.571C95.2121 18.1173 95.3715 18.7701 95.3715 19.5296C95.3715 20.2891 95.2121 20.9553 94.8921 21.5281C94.5852 22.1011 94.1721 22.5408 93.6527 22.8472C93.1465 23.1403 92.5996 23.2869 92.0134 23.2869C91.4402 23.2869 90.894 23.1403 90.3746 22.8472C89.8677 22.5541 89.4546 22.1277 89.1352 21.5681C88.8284 20.9952 88.6752 20.329 88.6752 19.5696C88.6752 18.8101 88.8284 18.1506 89.1352 17.591C89.4546 17.0315 89.8677 16.6051 90.3746 16.312C90.894 16.0188 91.4402 15.8723 92.0134 15.8723C92.5996 15.8723 93.1465 16.0188 93.6527 16.312C94.1721 16.5918 94.5852 17.0115 94.8921 17.571Z" fill="white"/>
<path d="M103.243 25.2655C102.377 25.2655 101.597 25.1122 100.904 24.8058C100.225 24.486 99.6849 24.0596 99.2855 23.5267C98.8855 22.9805 98.6724 22.3742 98.6455 21.708H101.004C101.044 22.1743 101.264 22.5674 101.664 22.8872C102.077 23.1936 102.591 23.3468 103.203 23.3468C103.843 23.3468 104.336 23.227 104.682 22.9871C105.042 22.734 105.222 22.4142 105.222 22.0278C105.222 21.6148 105.022 21.3083 104.622 21.1085C104.236 20.9086 103.616 20.6888 102.764 20.449C101.937 20.2225 101.264 20.0026 100.744 19.7895C100.225 19.5763 99.7718 19.2498 99.3855 18.8101C99.0124 18.3705 98.8255 17.7909 98.8255 17.0714C98.8255 16.4851 98.9986 15.9522 99.3455 15.4726C99.6918 14.9796 100.185 14.5932 100.824 14.3134C101.477 14.0336 102.224 13.8937 103.063 13.8937C104.316 13.8937 105.322 14.2135 106.082 14.853C106.855 15.4792 107.268 16.3386 107.321 17.4311H105.042C105.002 16.9381 104.802 16.5451 104.442 16.252C104.083 15.9589 103.596 15.8123 102.984 15.8123C102.384 15.8123 101.924 15.9256 101.604 16.1521C101.284 16.3786 101.124 16.6783 101.124 17.0514C101.124 17.3445 101.231 17.591 101.444 17.7909C101.657 17.9908 101.917 18.1506 102.224 18.2705C102.531 18.3771 102.984 18.517 103.583 18.6902C104.382 18.9034 105.036 19.1233 105.542 19.3498C106.062 19.563 106.508 19.8827 106.881 20.3091C107.254 20.7354 107.447 21.3016 107.461 22.0078C107.461 22.634 107.288 23.1936 106.941 23.6866C106.595 24.1796 106.102 24.566 105.462 24.8458C104.836 25.1255 104.096 25.2655 103.243 25.2655Z" fill="white"/>
<path d="M137.16 14.4333C136.48 14.0736 135.707 13.8937 134.841 13.8937C134.028 13.8937 133.268 14.0936 132.562 14.4933C131.856 14.8796 131.336 15.406 131.003 16.0721C130.63 15.366 130.097 14.8264 129.403 14.4533C128.711 14.0803 127.925 13.8937 127.045 13.8937C126.392 13.8937 125.779 14.0203 125.206 14.2735C124.633 14.5266 124.16 14.8796 123.787 15.3326V14.0736H121.508V25.0856H123.787V18.9301C123.787 17.9441 124.033 17.1913 124.526 16.6717C125.033 16.1388 125.712 15.8723 126.565 15.8723C127.418 15.8723 128.091 16.1388 128.584 16.6717C129.077 17.1913 129.323 17.9441 129.323 18.9301V25.0856H131.583V18.9301C131.583 17.9441 131.829 17.1913 132.322 16.6717C132.828 16.1388 133.508 15.8723 134.361 15.8723C135.214 15.8723 135.887 16.1388 136.38 16.6717C136.873 17.1913 137.12 17.9441 137.12 18.9301V25.0856H139.378V18.5903C139.378 17.591 139.178 16.7383 138.779 16.0321C138.392 15.326 137.853 14.7931 137.16 14.4333Z" fill="white"/>
<path d="M119.201 25.0855V14.0735H116.922V20.2091C116.922 21.195 116.668 21.9545 116.162 22.4874C115.669 23.007 114.997 23.2669 114.143 23.2669C113.29 23.2669 112.618 23.007 112.125 22.4874C111.632 21.9545 111.385 21.195 111.385 20.2091V14.0735H109.126V20.5489C109.126 21.5481 109.319 22.4008 109.706 23.107C110.105 23.8131 110.645 24.346 111.325 24.7058C112.018 25.0655 112.797 25.2454 113.663 25.2454C114.317 25.2454 114.93 25.1189 115.503 24.8657C116.089 24.5992 116.562 24.2395 116.922 23.7865V25.0855H119.201Z" fill="white"/>
<path fill-rule="evenodd" clip-rule="evenodd" d="M71.7383 24.566C72.5777 25.0323 73.5171 25.2655 74.5564 25.2655C75.6096 25.2655 76.5689 25.0323 77.4352 24.566C78.3145 24.0863 79.0077 23.4135 79.5139 22.5474C80.0202 21.6814 80.2733 20.6888 80.2733 19.5696C80.2733 18.4504 80.0271 17.4578 79.5339 16.5918C79.0408 15.7257 78.3677 15.0595 77.5152 14.5932C76.6621 14.1269 75.7096 13.8937 74.6564 13.8937C73.6039 13.8937 72.6508 14.1269 71.7977 14.5932C70.9452 15.0595 70.272 15.7257 69.7789 16.5918C69.2858 17.4578 69.0396 18.4504 69.0396 19.5696C69.0396 20.7021 69.2796 21.7014 69.7589 22.5674C70.2389 23.4201 70.8983 24.0863 71.7383 24.566ZM76.1958 22.8672C75.6896 23.147 75.1427 23.2869 74.5564 23.2869C73.6371 23.2869 72.8708 22.9671 72.2577 22.3276C71.6583 21.6747 71.3583 20.7554 71.3583 19.5696C71.3583 18.7701 71.5046 18.0973 71.7977 17.5511C72.0914 16.9915 72.4846 16.5718 72.9771 16.292C73.4839 16.0122 74.0302 15.8723 74.6164 15.8723C75.2027 15.8723 75.7489 16.0122 76.2558 16.292C76.7621 16.5718 77.1683 16.9915 77.4752 17.5511C77.7814 18.0973 77.9346 18.7701 77.9346 19.5696C77.9346 20.369 77.7746 21.0485 77.4552 21.6081C77.1352 22.1677 76.7152 22.5874 76.1958 22.8672Z" fill="white"/>
<path fill-rule="evenodd" clip-rule="evenodd" d="M59.7376 24.5914C59.7222 24.583 59.7067 24.5745 59.6913 24.566C58.8517 24.0863 58.192 23.4201 57.7123 22.5674C57.2325 21.7014 56.9927 20.7021 56.9927 19.5696C56.9927 18.4504 57.2392 17.4578 57.7323 16.5918C58.2254 15.7257 58.8984 15.0595 59.7512 14.5932C60.6042 14.1269 61.557 13.8937 62.6098 13.8937C63.6623 13.8937 64.6154 14.1269 65.4686 14.5932C66.3211 15.0595 66.9942 15.7257 67.4873 16.5918C67.9804 17.4578 68.2267 18.4504 68.2267 19.5696C68.2267 20.6888 67.9736 21.6814 67.4673 22.5474C66.9611 23.4135 66.2679 24.0863 65.3885 24.566C64.6435 24.967 63.8298 25.1956 62.9467 25.2517C64.0286 25.7466 65.6742 26.1461 66.5979 26.3705C66.9936 26.4665 67.2567 26.5304 67.2873 26.556L67.2885 26.5563V28.8362H58.9864V26.5563H63.7704C62.5536 26.2815 60.9006 25.3794 59.7376 24.5914ZM62.5098 23.2869C63.0961 23.2869 63.6423 23.147 64.1492 22.8672C64.6686 22.5874 65.0886 22.1677 65.4086 21.6081C65.7279 21.0485 65.8879 20.369 65.8879 19.5696C65.8879 18.7701 65.7348 18.0973 65.4286 17.5511C65.1217 16.9915 64.7154 16.5718 64.2092 16.292C63.7023 16.0122 63.1561 15.8723 62.5698 15.8723C61.9834 15.8723 61.437 16.0122 60.9306 16.292C60.4375 16.5718 60.0444 16.9915 59.7512 17.5511C59.458 18.0973 59.3115 18.7701 59.3115 19.5696C59.3115 20.7554 59.6113 21.6747 60.211 22.3276C60.8241 22.9671 61.5903 23.2869 62.5098 23.2869Z" fill="white"/>
<path fill-rule="evenodd" clip-rule="evenodd" d="M47.6439 24.566C48.4834 25.0323 49.4229 25.2655 50.4624 25.2655C51.5152 25.2655 52.4747 25.0323 53.3409 24.566C54.2204 24.0863 54.9134 23.4135 55.4198 22.5474C55.9263 21.6814 56.1794 20.6888 56.1794 19.5696C56.1794 18.4504 55.9329 17.4578 55.4398 16.5918C54.9467 15.7257 54.2737 15.0595 53.4209 14.5932C52.568 14.1269 51.6151 13.8937 50.5624 13.8937C49.5096 13.8937 48.5567 14.1269 47.7039 14.5932C46.851 15.0595 46.178 15.7257 45.6849 16.5918C45.1919 17.4578 44.9453 18.4504 44.9453 19.5696C44.9453 20.7021 45.1852 21.7014 45.6649 22.5674C46.1447 23.4201 46.8043 24.0863 47.6439 24.566ZM52.1016 22.8672C51.5952 23.147 51.0487 23.2869 50.4624 23.2869C49.5429 23.2869 48.7766 22.9671 48.1636 22.3276C47.5639 21.6747 47.2641 20.7554 47.2641 19.5696C47.2641 18.7701 47.4107 18.0973 47.7039 17.5511C47.9971 16.9915 48.3902 16.5718 48.8832 16.292C49.3896 16.0122 49.936 15.8723 50.5224 15.8723C51.1088 15.8723 51.6551 16.0122 52.1615 16.292C52.6679 16.5718 53.0744 16.9915 53.3809 17.5511C53.6874 18.0973 53.8406 18.7701 53.8406 19.5696C53.8406 20.369 53.6807 21.0485 53.3609 21.6081C53.0411 22.1677 52.6213 22.5874 52.1016 22.8672Z" fill="white"/>
<path d="M39.7803 23.2469H44.4778V25.0856H37.5015V11.1956H39.7803V23.2469Z" fill="white"/>
</svg>
