<svg width="224" height="100" viewBox="0 0 224 100" fill="none" xmlns="http://www.w3.org/2000/svg">
<path d="M12.3281 30L22.6623 38.8289C23.2758 39.353 23.6294 40.1222 23.6294 40.9323V47.5862L13.2953 38.7573C12.6817 38.2332 12.3281 37.464 12.3281 36.6539V30Z" fill="white"/>
<path d="M12.3281 70L22.6623 61.1711C23.2758 60.647 23.6294 59.8778 23.6294 59.0677V52.4138L13.2953 61.2427C12.6817 61.7668 12.3281 62.536 12.3281 63.3461V70Z" fill="white"/>
<path d="M0 39.3104L10.1936 47.9705C10.6878 48.3904 11.3137 48.6207 11.9603 48.6207H20.181L10.0125 39.9626C9.51795 39.5414 8.89118 39.3104 8.24346 39.3104H0Z" fill="white"/>
<path d="M0 60.6897L10.1309 52.0345C10.626 51.6115 11.2542 51.3793 11.9034 51.3793H20.2055L10.0119 60.0394C9.51769 60.4593 8.89185 60.6897 8.24517 60.6897H0Z" fill="white"/>
<path d="M37.6724 30L27.3382 38.8289C26.7247 39.353 26.3711 40.1222 26.3711 40.9323V47.5862L36.7052 38.7573C37.3188 38.2332 37.6724 37.464 37.6724 36.6539V30Z" fill="white"/>
<path d="M37.6724 70L27.3382 61.1711C26.7247 60.647 26.3711 59.8778 26.3711 59.0677V52.4138L36.7052 61.2427C37.3188 61.7668 37.6724 62.536 37.6724 63.3461V70Z" fill="white"/>
<path d="M50.0013 39.3103L39.8077 47.9704C39.3135 48.3903 38.6876 48.6206 38.041 48.6206H29.8203L39.9888 39.9625C40.4834 39.5414 41.1101 39.3103 41.7578 39.3103H50.0013Z" fill="white"/>
<path d="M49.9985 60.6898L39.8676 52.0346C39.3725 51.6116 38.7443 51.3794 38.0951 51.3794H29.793L39.9866 60.0395C40.4808 60.4594 41.1066 60.6898 41.7533 60.6898H49.9985Z" fill="white"/>
<path d="M132.775 38.6686C132.114 38.6686 131.56 38.4448 131.112 37.9971C130.664 37.5494 130.441 36.9952 130.441 36.3343C130.441 35.6734 130.664 35.1192 131.112 34.6715C131.56 34.2238 132.114 34 132.775 34C133.415 34 133.959 34.2238 134.406 34.6715C134.854 35.1192 135.078 35.6734 135.078 36.3343C135.078 36.9952 134.854 37.5494 134.406 37.9971C133.959 38.4448 133.415 38.6686 132.775 38.6686Z" fill="white"/>
<path d="M134.568 41.0029V58.6221H130.922V41.0029H134.568Z" fill="white"/>
<path fill-rule="evenodd" clip-rule="evenodd" d="M144.407 41.5465C143.341 42.1008 142.498 42.783 141.88 43.593V41.0029H138.234V67H141.88V56.064C142.541 56.874 143.394 57.5562 144.439 58.1105C145.483 58.6434 146.678 58.9099 148.021 58.9099C149.556 58.9099 150.953 58.5262 152.211 57.7587C153.49 56.97 154.492 55.8828 155.217 54.4971C155.942 53.0901 156.304 51.5019 156.304 49.7326C156.304 47.9632 155.942 46.3963 155.217 45.032C154.492 43.6676 153.49 42.6124 152.211 41.8663C150.953 41.0988 149.556 40.7151 148.021 40.7151C146.678 40.7151 145.473 40.9923 144.407 41.5465ZM151.827 46.5988C152.339 47.4729 152.594 48.5174 152.594 49.7326C152.594 50.9477 152.339 52.0136 151.827 52.9302C151.336 53.8469 150.675 54.5504 149.844 55.0407C149.034 55.5097 148.159 55.7442 147.221 55.7442C146.304 55.7442 145.43 55.5097 144.599 55.0407C143.788 54.5717 143.127 53.8895 142.616 52.9942C142.125 52.0775 141.88 51.0116 141.88 49.7965C141.88 48.5814 142.125 47.5262 142.616 46.6308C143.127 45.7355 143.788 45.0533 144.599 44.5843C145.43 44.1153 146.304 43.8808 147.221 43.8808C148.159 43.8808 149.034 44.1153 149.844 44.5843C150.675 45.032 151.336 45.7035 151.827 46.5988Z" fill="white"/>
<path d="M165.188 58.9099C163.802 58.9099 162.555 58.6647 161.446 58.1744C160.359 57.6628 159.495 56.9806 158.856 56.1279C158.216 55.2539 157.875 54.2839 157.832 53.218H161.606C161.67 53.9641 162.022 54.593 162.662 55.1047C163.323 55.595 164.144 55.8401 165.124 55.8401C166.148 55.8401 166.937 55.6483 167.491 55.2645C168.067 54.8595 168.355 54.3479 168.355 53.7297C168.355 53.0688 168.035 52.5785 167.395 52.2587C166.777 51.939 165.785 51.5872 164.421 51.2035C163.099 50.8411 162.022 50.4893 161.19 50.1483C160.359 49.8072 159.634 49.2849 159.016 48.5814C158.419 47.8779 158.12 46.9506 158.12 45.7994C158.12 44.8614 158.397 44.0087 158.952 43.2413C159.506 42.4525 160.295 41.8343 161.318 41.3866C162.363 40.939 163.557 40.7151 164.9 40.7151C166.905 40.7151 168.515 41.2267 169.73 42.25C170.967 43.2519 171.628 44.6269 171.713 46.375H168.067C168.003 45.5862 167.683 44.9574 167.107 44.4884C166.532 44.0194 165.753 43.7849 164.773 43.7849C163.813 43.7849 163.077 43.9661 162.566 44.3285C162.054 44.6909 161.798 45.1705 161.798 45.7674C161.798 46.2364 161.969 46.6308 162.31 46.9506C162.651 47.2704 163.067 47.5262 163.557 47.718C164.048 47.8886 164.773 48.1124 165.732 48.3895C167.011 48.7306 168.056 49.0824 168.866 49.4448C169.698 49.7859 170.412 50.2975 171.009 50.9797C171.606 51.6618 171.915 52.5678 171.937 53.6977C171.937 54.6996 171.66 55.595 171.105 56.3837C170.551 57.1725 169.762 57.7907 168.738 58.2384C167.736 58.686 166.553 58.9099 165.188 58.9099Z" fill="white"/>
<path d="M219.449 41.5785C218.361 41.0029 217.125 40.7151 215.739 40.7151C214.438 40.7151 213.223 41.0349 212.093 41.6744C210.963 42.2926 210.131 43.1347 209.598 44.2006C209.001 43.0707 208.148 42.2074 207.039 41.6105C205.931 41.0136 204.673 40.7151 203.265 40.7151C202.221 40.7151 201.24 40.9176 200.323 41.3227C199.406 41.7277 198.649 42.2926 198.052 43.0174V41.0029H194.406V58.6221H198.052V48.7733C198.052 47.1957 198.447 45.9913 199.235 45.1599C200.046 44.3072 201.133 43.8808 202.498 43.8808C203.862 43.8808 204.939 44.3072 205.728 45.1599C206.517 45.9913 206.911 47.1957 206.911 48.7733V58.6221H210.526V48.7733C210.526 47.1957 210.92 45.9913 211.709 45.1599C212.519 44.3072 213.607 43.8808 214.971 43.8808C216.336 43.8808 217.413 44.3072 218.202 45.1599C218.99 45.9913 219.385 47.1957 219.385 48.7733V58.6221H222.999V48.2297C222.999 46.6308 222.679 45.2665 222.04 44.1366C221.421 43.0068 220.558 42.1541 219.449 41.5785Z" fill="white"/>
<path d="M190.718 58.6221V41.0029H187.072V50.8198C187.072 52.3973 186.666 53.6124 185.856 54.4651C185.067 55.2965 183.991 55.7122 182.626 55.7122C181.261 55.7122 180.185 55.2965 179.396 54.4651C178.607 53.6124 178.212 52.3973 178.212 50.8198V41.0029H174.598V51.3634C174.598 52.9622 174.907 54.3265 175.526 55.4564C176.165 56.5862 177.029 57.4389 178.116 58.0145C179.225 58.5901 180.472 58.8779 181.858 58.8779C182.903 58.8779 183.884 58.6754 184.801 58.2703C185.739 57.844 186.496 57.2684 187.072 56.5436V58.6221H190.718Z" fill="white"/>
<path fill-rule="evenodd" clip-rule="evenodd" d="M114.779 57.7907C116.122 58.5368 117.625 58.9099 119.288 58.9099C120.973 58.9099 122.508 58.5368 123.894 57.7907C125.301 57.0233 126.41 55.9467 127.22 54.561C128.03 53.1754 128.435 51.5872 128.435 49.7965C128.435 48.0058 128.041 46.4176 127.252 45.032C126.463 43.6463 125.386 42.5804 124.022 41.8343C122.657 41.0882 121.133 40.7151 119.448 40.7151C117.764 40.7151 116.239 41.0882 114.874 41.8343C113.51 42.5804 112.433 43.6463 111.644 45.032C110.855 46.4176 110.461 48.0058 110.461 49.7965C110.461 51.6085 110.845 53.2074 111.612 54.593C112.38 55.9574 113.435 57.0233 114.779 57.7907ZM121.911 55.0727C121.101 55.5203 120.226 55.7442 119.288 55.7442C117.817 55.7442 116.591 55.2326 115.61 54.2093C114.651 53.1647 114.171 51.6938 114.171 49.7965C114.171 48.5174 114.405 47.4409 114.874 46.5669C115.344 45.6715 115.973 45 116.761 44.5523C117.572 44.1047 118.446 43.8808 119.384 43.8808C120.322 43.8808 121.196 44.1047 122.007 44.5523C122.817 45 123.467 45.6715 123.958 46.5669C124.448 47.4409 124.693 48.5174 124.693 49.7965C124.693 51.0756 124.437 52.1628 123.926 53.0581C123.414 53.9535 122.742 54.625 121.911 55.0727Z" fill="white"/>
<path fill-rule="evenodd" clip-rule="evenodd" d="M95.5755 57.8314C95.5508 57.818 95.526 57.8044 95.5014 57.7907C94.1581 57.0233 93.1026 55.9574 92.335 54.593C91.5674 53.2074 91.1836 51.6085 91.1836 49.7965C91.1836 48.0058 91.5781 46.4176 92.367 45.032C93.1559 43.6463 94.2327 42.5804 95.5973 41.8343C96.962 41.0882 98.4865 40.7151 100.171 40.7151C101.855 40.7151 103.38 41.0882 104.745 41.8343C106.109 42.5804 107.186 43.6463 107.975 45.032C108.764 46.4176 109.158 48.0058 109.158 49.7965C109.158 51.5872 108.753 53.1754 107.943 54.561C107.133 55.9467 106.024 57.0233 104.617 57.7907C103.425 58.4323 102.123 58.7981 100.71 58.8879C102.441 59.6797 105.074 60.319 106.552 60.6779C107.185 60.8316 107.606 60.9338 107.655 60.9747L107.657 60.9752V64.6231H94.3735V60.9752H102.028C100.081 60.5355 97.4363 59.0922 95.5755 57.8314ZM100.011 55.7442C100.949 55.7442 101.823 55.5203 102.634 55.0727C103.465 54.625 104.137 53.9535 104.649 53.0581C105.16 52.1628 105.416 51.0756 105.416 49.7965C105.416 48.5174 105.171 47.4409 104.681 46.5669C104.19 45.6715 103.54 45 102.73 44.5523C101.919 44.1047 101.045 43.8808 100.107 43.8808C99.1688 43.8808 98.2946 44.1047 97.4843 44.5523C96.6954 45 96.0664 45.6715 95.5973 46.5669C95.1282 47.4409 94.8937 48.5174 94.8937 49.7965C94.8937 51.6938 95.3734 53.1647 96.3329 54.2093C97.3138 55.2326 98.5398 55.7442 100.011 55.7442Z" fill="white"/>
<path fill-rule="evenodd" clip-rule="evenodd" d="M76.2279 57.7907C77.5712 58.5368 79.0744 58.9099 80.7376 58.9099C82.422 58.9099 83.9572 58.5368 85.3432 57.7907C86.7504 57.0233 87.8592 55.9467 88.6694 54.561C89.4797 53.1754 89.8848 51.5872 89.8848 49.7965C89.8848 48.0058 89.4903 46.4176 88.7014 45.032C87.9125 43.6463 86.8357 42.5804 85.4711 41.8343C84.1065 41.0882 82.5819 40.7151 80.8975 40.7151C79.213 40.7151 77.6885 41.0882 76.3239 41.8343C74.9593 42.5804 73.8825 43.6463 73.0936 45.032C72.3047 46.4176 71.9102 48.0058 71.9102 49.7965C71.9102 51.6085 72.294 53.2074 73.0616 54.593C73.8292 55.9574 74.8846 57.0233 76.2279 57.7907ZM83.3602 55.0727C82.55 55.5203 81.6757 55.7442 80.7376 55.7442C79.2663 55.7442 78.0403 55.2326 77.0595 54.2093C76.1 53.1647 75.6203 51.6938 75.6203 49.7965C75.6203 48.5174 75.8548 47.4409 76.3239 46.5669C76.793 45.6715 77.422 45 78.2109 44.5523C79.0211 44.1047 79.8953 43.8808 80.8335 43.8808C81.7717 43.8808 82.6459 44.1047 83.4561 44.5523C84.2664 45 84.9167 45.6715 85.4071 46.5669C85.8975 47.4409 86.1427 48.5174 86.1427 49.7965C86.1427 51.0756 85.8869 52.1628 85.3751 53.0581C84.8634 53.9535 84.1918 54.625 83.3602 55.0727Z" fill="white"/>
<path d="M63.6461 55.6802H71.1621V58.6221H60V36.3983H63.6461V55.6802Z" fill="white"/>
</svg>
