<svg width="40" height="40" viewBox="0 0 40 40" fill="none" xmlns="http://www.w3.org/2000/svg">
<path d="M13.75 23.3422C14.0815 23.3422 14.3995 23.2105 14.6339 22.9761C14.8683 22.7417 15 22.4237 15 22.0922V20H25V22.3891C25 22.7206 25.1317 23.0385 25.3661 23.2729C25.6005 23.5074 25.9185 23.6391 26.25 23.6391C26.5815 23.6391 26.8995 23.5074 27.1339 23.2729C27.3683 23.0385 27.5 22.7206 27.5 22.3891V5C27.5 4.66848 27.3683 4.35054 27.1339 4.11612C26.8995 3.8817 26.5815 3.75 26.25 3.75C25.9185 3.75 25.6005 3.8817 25.3661 4.11612C25.1317 4.35054 25 4.66848 25 5V7.5H15V5C15 4.66848 14.8683 4.35054 14.6339 4.11612C14.3995 3.8817 14.0815 3.75 13.75 3.75C13.4185 3.75 13.1005 3.8817 12.8661 4.11612C12.6317 4.35054 12.5 4.66848 12.5 5V22.0922C12.5 22.4237 12.6317 22.7417 12.8661 22.9761C13.1005 23.2105 13.4185 23.3422 13.75 23.3422ZM15 17.5V15H25V17.5H15ZM25 10V12.5H15V10H25ZM3.75 26.25C3.75 25.9185 3.8817 25.6005 4.11612 25.3661C4.35054 25.1317 4.66848 25 5 25C7.25312 25 8.46719 25.8094 9.44375 26.4594C10.3125 27.0406 11.0031 27.5 12.5 27.5C13.9969 27.5 14.6875 27.0406 15.5562 26.4594C16.5312 25.8094 17.7437 25 19.9984 25C22.2531 25 23.4672 25.8094 24.4422 26.4594C25.3141 27.0406 26.0047 27.5 27.5 27.5C28.9953 27.5 29.6875 27.0406 30.5562 26.4594C31.5328 25.8094 32.7437 25 35 25C35.3315 25 35.6495 25.1317 35.8839 25.3661C36.1183 25.6005 36.25 25.9185 36.25 26.25C36.25 26.5815 36.1183 26.8995 35.8839 27.1339C35.6495 27.3683 35.3315 27.5 35 27.5C33.5031 27.5 32.8125 27.9594 31.9438 28.5406C30.9672 29.1906 29.7563 30 27.5 30C25.2437 30 24.0312 29.1906 23.0562 28.5406C22.1875 27.9594 21.4953 27.5 20 27.5C18.5047 27.5 17.8125 27.9594 16.9438 28.5406C15.9688 29.1906 14.7563 30 12.5016 30C10.2469 30 9.03438 29.1906 8.05781 28.5406C7.1875 27.9594 6.49688 27.5 5 27.5C4.66848 27.5 4.35054 27.3683 4.11612 27.1339C3.8817 26.8995 3.75 26.5815 3.75 26.25ZM36.25 32.5C36.25 32.8315 36.1183 33.1495 35.8839 33.3839C35.6495 33.6183 35.3315 33.75 35 33.75C33.5031 33.75 32.8125 34.2094 31.9438 34.7906C30.9672 35.4406 29.7563 36.25 27.5 36.25C25.2437 36.25 24.0312 35.4406 23.0562 34.7906C22.1875 34.2094 21.4953 33.75 20 33.75C18.5047 33.75 17.8125 34.2094 16.9438 34.7906C15.9688 35.4406 14.7563 36.25 12.5016 36.25C10.2469 36.25 9.03438 35.4406 8.05781 34.7906C7.1875 34.2094 6.49688 33.75 5 33.75C4.66848 33.75 4.35054 33.6183 4.11612 33.3839C3.8817 33.1495 3.75 32.8315 3.75 32.5C3.75 32.1685 3.8817 31.8505 4.11612 31.6161C4.35054 31.3817 4.66848 31.25 5 31.25C7.25312 31.25 8.46719 32.0594 9.44375 32.7094C10.3125 33.2906 11.0031 33.75 12.5 33.75C13.9969 33.75 14.6875 33.2906 15.5562 32.7094C16.5312 32.0594 17.7437 31.25 19.9984 31.25C22.2531 31.25 23.4672 32.0594 24.4422 32.7094C25.3141 33.2906 26.0047 33.75 27.5 33.75C28.9953 33.75 29.6875 33.2906 30.5562 32.7094C31.5328 32.0594 32.7437 31.25 35 31.25C35.3315 31.25 35.6495 31.3817 35.8839 31.6161C36.1183 31.8505 36.25 32.1685 36.25 32.5Z" fill="#A49781"/>
</svg>
