<svg width="40" height="40" viewBox="0 0 40 40" fill="none" xmlns="http://www.w3.org/2000/svg">
<path d="M26.8752 13.75C27.7405 13.75 28.5863 13.4934 29.3058 13.0127C30.0253 12.532 30.586 11.8487 30.9171 11.0492C31.2483 10.2498 31.3349 9.37015 31.1661 8.52148C30.9973 7.67281 30.5806 6.89326 29.9688 6.28141C29.3569 5.66956 28.5774 5.25288 27.7287 5.08407C26.88 4.91526 26.0004 5.0019 25.2009 5.33303C24.4015 5.66416 23.7182 6.22492 23.2375 6.94438C22.7568 7.66385 22.5002 8.50971 22.5002 9.375C22.5002 10.5353 22.9611 11.6481 23.7816 12.4686C24.6021 13.2891 25.7149 13.75 26.8752 13.75ZM26.8752 7.5C27.246 7.5 27.6085 7.60997 27.9169 7.816C28.2252 8.02202 28.4655 8.31486 28.6074 8.65747C28.7494 9.00008 28.7865 9.37708 28.7141 9.7408C28.6418 10.1045 28.4632 10.4386 28.201 10.7008C27.9388 10.9631 27.6047 11.1416 27.241 11.214C26.8773 11.2863 26.5003 11.2492 26.1576 11.1073C25.815 10.9654 25.5222 10.725 25.3162 10.4167C25.1101 10.1084 25.0002 9.74584 25.0002 9.375C25.0002 8.87772 25.1977 8.40081 25.5494 8.04918C25.901 7.69755 26.3779 7.5 26.8752 7.5ZM5.05018 12.15C5.09614 11.9924 5.17269 11.8454 5.27546 11.7174C5.37823 11.5894 5.5052 11.4829 5.64913 11.404C5.79307 11.3251 5.95113 11.2752 6.11431 11.2574C6.27749 11.2396 6.44259 11.254 6.60018 11.3L17.5002 14.4797L19.1127 12.8656C19.2288 12.7494 19.3666 12.6572 19.5184 12.5943C19.6701 12.5314 19.8328 12.499 19.9971 12.499C20.1613 12.499 20.324 12.5314 20.4757 12.5943C20.6275 12.6572 20.7653 12.7494 20.8814 12.8656L25.5174 17.5H31.2502C31.5817 17.5 31.8996 17.6317 32.1341 17.8661C32.3685 18.1005 32.5002 18.4185 32.5002 18.75C32.5002 19.0815 32.3685 19.3995 32.1341 19.6339C31.8996 19.8683 31.5817 20 31.2502 20H25.0002C24.836 20.0001 24.6734 19.9679 24.5216 19.9052C24.3699 19.8424 24.232 19.7504 24.1158 19.6344L23.2392 18.75L5.89549 13.6938C5.57951 13.5999 5.3134 13.385 5.15508 13.0959C4.99677 12.8067 4.95906 12.4668 5.05018 12.15ZM36.9439 31.9125C35.6184 32.7982 34.1148 33.3824 32.539 33.624C30.9632 33.8657 29.3536 33.7588 27.8236 33.3109L3.40174 26.1984C3.2414 26.155 3.09132 26.0801 2.96028 25.978C2.82923 25.8759 2.71986 25.7487 2.63853 25.6038C2.55721 25.459 2.50558 25.2994 2.48666 25.1343C2.46773 24.9693 2.48189 24.8021 2.52831 24.6426C2.57472 24.4831 2.65247 24.3345 2.757 24.2054C2.86152 24.0763 2.99074 23.9693 3.13709 23.8907C3.28344 23.8121 3.44398 23.7634 3.60935 23.7476C3.77471 23.7318 3.94157 23.749 4.10018 23.7984L15.9752 27.2563L20.1142 23.125L13.4064 21.2016C13.2485 21.1564 13.1011 21.0806 12.9725 20.9785C12.8439 20.8764 12.7367 20.7499 12.6569 20.6063C12.4959 20.3164 12.4567 19.9744 12.5478 19.6555C12.593 19.4976 12.6688 19.3501 12.7709 19.2215C12.873 19.0929 12.9995 18.9857 13.1431 18.906C13.433 18.7449 13.775 18.7057 14.0939 18.7969L22.8439 21.2969C23.0533 21.3566 23.2434 21.47 23.3954 21.6259C23.5474 21.7817 23.6562 21.9745 23.7108 22.1852C23.7654 22.396 23.764 22.6173 23.7068 22.8274C23.6496 23.0374 23.5385 23.2289 23.3846 23.3828L18.7127 28.0547L28.5236 30.9109C29.7031 31.2564 30.9441 31.3389 32.1589 31.1526C33.3738 30.9663 34.533 30.5158 35.5549 29.8328C35.6914 29.7417 35.8446 29.6784 36.0056 29.6465C36.1666 29.6146 36.3324 29.6147 36.4933 29.6468C36.6543 29.679 36.8074 29.7425 36.9438 29.8338C37.0802 29.9251 37.1974 30.0424 37.2885 30.1789C37.3796 30.3155 37.4429 30.4686 37.4748 30.6297C37.5067 30.7907 37.5066 30.9564 37.4744 31.1174C37.4423 31.2784 37.3788 31.4314 37.2875 31.5679C37.1962 31.7043 37.0789 31.8214 36.9424 31.9125H36.9439Z" fill="#A49781"/>
</svg>
