<svg width="40" height="40" viewBox="0 0 40 40" fill="none" xmlns="http://www.w3.org/2000/svg">
<path d="M38.4107 19.0047C38.2513 18.7246 38.0376 18.479 37.7822 18.2824C37.5268 18.0857 37.2348 17.9419 36.9232 17.8594C35.7928 17.5684 34.6247 17.4514 33.4591 17.5125C34.0841 14.4109 33.6154 11.9578 33.1373 10.5031C32.9467 9.90557 32.5404 9.40041 31.9976 9.08612C31.4548 8.77183 30.8144 8.67094 30.2013 8.80312C28.6114 9.15723 27.0995 9.79903 25.7404 10.6969C24.745 8.6635 23.2957 6.88601 21.5044 5.50156C21.0704 5.17599 20.5424 5 19.9998 5C19.4571 5 18.9292 5.17599 18.4951 5.50156C16.7034 6.88561 15.2541 8.6632 14.2591 10.6969C12.9 9.79903 11.3882 9.15723 9.7982 8.80312C9.18508 8.67094 8.5447 8.77183 8.00191 9.08612C7.45913 9.40041 7.05284 9.90557 6.86226 10.5031C6.39351 11.9578 5.92476 14.4094 6.54039 17.5125C5.37478 17.4514 4.20668 17.5684 3.07632 17.8594C2.76474 17.9419 2.47273 18.0857 2.21733 18.2824C1.96193 18.479 1.74827 18.7246 1.58882 19.0047C1.42196 19.2916 1.31391 19.609 1.27099 19.9381C1.22806 20.2673 1.25113 20.6017 1.33882 20.9219C1.86851 22.8859 3.49507 26.6219 8.42164 29.5656C13.3482 32.5094 17.6763 32.5 20.0076 32.5C22.3388 32.5 26.6748 32.5 31.5701 29.5656C36.4966 26.6219 38.1232 22.8859 38.6529 20.9219C38.7418 20.6022 38.7661 20.2681 38.7245 19.9389C38.6829 19.6098 38.5763 19.2922 38.4107 19.0047ZM9.24039 11.2719C9.24225 11.2641 9.24702 11.2574 9.2537 11.253C9.26038 11.2487 9.26847 11.247 9.27632 11.2484C10.7302 11.5769 12.1022 12.1972 13.3091 13.0719C12.7596 14.8696 12.4867 16.7405 12.4998 18.6203C12.4998 21.5484 13.0888 23.9328 13.9232 25.8516C12.737 24.6643 11.7107 23.3276 10.8701 21.875C8.05445 16.9719 8.64039 13.125 9.24039 11.2719ZM9.70914 27.4203C5.54195 24.9328 4.19039 21.8828 3.74976 20.2656C4.89948 19.9826 6.09251 19.9205 7.26539 20.0828C7.65695 21.1317 8.13516 22.1461 8.69507 23.1156C10.0698 25.4858 11.8709 27.5815 14.0076 29.2969C12.4967 28.8625 11.0494 28.2316 9.70289 27.4203H9.70914ZM19.9998 29.75C18.5419 28.6656 14.9998 25.3391 14.9998 18.6203C14.9998 11.9844 18.4966 8.63125 19.9998 7.5C21.5029 8.63438 24.9998 11.9875 24.9998 18.6234C24.9998 25.3391 21.4576 28.6656 19.9998 29.75ZM26.6904 13.0719C27.8974 12.1978 29.2694 11.578 30.7232 11.25C30.7311 11.2486 30.7391 11.2502 30.7458 11.2546C30.7525 11.2589 30.7573 11.2657 30.7591 11.2734C31.3591 13.125 31.9451 16.9719 29.1294 21.875C28.2896 23.3295 27.2632 24.6679 26.0763 25.8562C26.9107 23.9406 27.4998 21.5531 27.4998 18.625C27.5133 16.7436 27.2404 14.8711 26.6904 13.0719ZM36.2498 20.2688C35.8169 21.8703 34.4685 24.9266 30.2982 27.4203C28.9516 28.231 27.5043 28.8614 25.9935 29.2953C28.1301 27.5799 29.9312 25.4843 31.306 23.1141C31.8659 22.1446 32.3441 21.1301 32.7357 20.0813C33.9082 19.9197 35.1008 19.9828 36.2498 20.2672V20.2688Z" fill="#A49781"/>
</svg>
