<svg width="24" height="24" viewBox="0 0 24 24" fill="none" xmlns="http://www.w3.org/2000/svg">
<path d="M13.1254 19.125C13.1254 19.3475 13.0594 19.565 12.9358 19.75C12.8121 19.935 12.6364 20.0792 12.4309 20.1644C12.2253 20.2495 11.9991 20.2718 11.7809 20.2284C11.5626 20.185 11.3622 20.0778 11.2049 19.9205C11.0475 19.7632 10.9404 19.5627 10.897 19.3445C10.8536 19.1262 10.8758 18.9 10.961 18.6945C11.0461 18.4889 11.1903 18.3132 11.3753 18.1896C11.5603 18.066 11.7779 18 12.0004 18C12.2987 18 12.5849 18.1185 12.7958 18.3295C13.0068 18.5405 13.1254 18.8266 13.1254 19.125ZM22.2266 8.15624C19.3433 5.79129 15.7295 4.49878 12.0004 4.49878C8.27124 4.49878 4.65739 5.79129 1.77411 8.15624C1.69796 8.21879 1.63488 8.29571 1.58846 8.38264C1.54204 8.46956 1.5132 8.56477 1.50358 8.66284C1.49396 8.7609 1.50375 8.85991 1.5324 8.95419C1.56104 9.04847 1.60797 9.13619 1.67051 9.21234C1.73305 9.28848 1.80998 9.35157 1.8969 9.39798C1.98382 9.4444 2.07904 9.47324 2.1771 9.48286C2.37516 9.50229 2.57282 9.44224 2.72661 9.31593C5.34149 7.1716 8.61867 5.9997 12.0004 5.9997C15.382 5.9997 18.6592 7.1716 21.2741 9.31593C21.4279 9.44224 21.6256 9.50229 21.8236 9.48286C22.0217 9.46343 22.2039 9.36612 22.3302 9.21234C22.4565 9.05855 22.5166 8.86089 22.4971 8.66284C22.4777 8.46478 22.3804 8.28255 22.2266 8.15624ZM19.2191 11.5097C17.1654 9.8837 14.6227 8.999 12.0032 8.999C9.38368 8.999 6.84098 9.8837 4.78723 11.5097C4.63133 11.6333 4.53091 11.8137 4.50805 12.0113C4.4852 12.2089 4.54178 12.4075 4.66536 12.5634C4.78893 12.7193 4.96937 12.8198 5.16699 12.8426C5.36461 12.8655 5.56321 12.8089 5.71911 12.6853C7.50772 11.2695 9.72203 10.4992 12.0032 10.4992C14.2843 10.4992 16.4986 11.2695 18.2872 12.6853C18.3644 12.7465 18.4529 12.7919 18.5476 12.8189C18.6424 12.8459 18.7415 12.854 18.8394 12.8426C18.9372 12.8313 19.0319 12.8008 19.1179 12.7529C19.204 12.705 19.2798 12.6406 19.341 12.5634C19.4022 12.4862 19.4476 12.3978 19.4746 12.303C19.5016 12.2083 19.5096 12.1092 19.4983 12.0113C19.487 11.9135 19.4565 11.8188 19.4086 11.7327C19.3607 11.6467 19.2963 11.5709 19.2191 11.5097ZM16.1947 14.8622C14.9765 13.9768 13.5092 13.4999 12.0032 13.4999C10.4972 13.4999 9.02985 13.9768 7.81161 14.8622C7.65073 14.9793 7.54298 15.1555 7.51203 15.3521C7.48109 15.5486 7.5295 15.7494 7.64661 15.9103C7.76371 16.0712 7.93993 16.1789 8.1365 16.2099C8.33306 16.2408 8.53386 16.1924 8.69473 16.0753C9.65615 15.3761 10.8144 14.9995 12.0032 14.9995C13.192 14.9995 14.3502 15.3761 15.3116 16.0753C15.3913 16.1333 15.4816 16.175 15.5773 16.1981C15.6731 16.2212 15.7725 16.2252 15.8698 16.2099C15.9672 16.1946 16.0605 16.1602 16.1446 16.1088C16.2286 16.0574 16.3017 15.99 16.3597 15.9103C16.4177 15.8307 16.4594 15.7404 16.4825 15.6446C16.5056 15.5488 16.5096 15.4494 16.4943 15.3521C16.479 15.2547 16.4446 15.1614 16.3932 15.0773C16.3418 14.9933 16.2744 14.9202 16.1947 14.8622Z" fill="#A49781"/>
</svg>
