<svg width="40" height="40" viewBox="0 0 40 40" fill="none" xmlns="http://www.w3.org/2000/svg">
<path d="M20 12.5C20.9889 12.5 21.9556 12.2068 22.7779 11.6574C23.6001 11.1079 24.241 10.327 24.6194 9.41342C24.9978 8.49979 25.0969 7.49446 24.9039 6.52455C24.711 5.55465 24.2348 4.66373 23.5355 3.96447C22.8363 3.26521 21.9454 2.789 20.9755 2.59608C20.0055 2.40315 19.0002 2.50217 18.0866 2.8806C17.173 3.25904 16.3921 3.89991 15.8427 4.72215C15.2932 5.5444 15 6.5111 15 7.5C15 8.82609 15.5268 10.0979 16.4645 11.0355C17.4021 11.9732 18.6739 12.5 20 12.5ZM20 5C20.4945 5 20.9778 5.14662 21.3889 5.42133C21.8 5.69603 22.1205 6.08648 22.3097 6.54329C22.4989 7.00011 22.5484 7.50278 22.452 7.98773C22.3555 8.47268 22.1174 8.91814 21.7678 9.26777C21.4181 9.6174 20.9727 9.8555 20.4877 9.95197C20.0028 10.0484 19.5001 9.99892 19.0433 9.8097C18.5865 9.62048 18.196 9.30005 17.9213 8.88893C17.6466 8.4778 17.5 7.99446 17.5 7.5C17.5 6.83696 17.7634 6.20108 18.2322 5.73223C18.7011 5.26339 19.337 5 20 5ZM35 16.25C35 16.5815 34.8683 16.8995 34.6339 17.1339C34.3995 17.3683 34.0815 17.5 33.75 17.5H21.25V21.675L29.2422 25.1016C29.467 25.1979 29.6586 25.358 29.7933 25.5621C29.928 25.7663 29.9999 26.0054 30 26.25V33.75C30 34.0815 29.8683 34.3995 29.6339 34.6339C29.3995 34.8683 29.0815 35 28.75 35C28.4185 35 28.1005 34.8683 27.8661 34.6339C27.6317 34.3995 27.5 34.0815 27.5 33.75V27.075L20.2422 23.9641L8.33594 34.6875C8.08937 34.9092 7.76483 35.0239 7.43371 35.0063C7.10259 34.9887 6.79202 34.8403 6.57031 34.5938C6.34861 34.3472 6.23393 34.0226 6.25151 33.6915C6.2691 33.3604 6.41749 33.0498 6.66406 32.8281L18.75 21.9438V17.5H6.25C5.91848 17.5 5.60054 17.3683 5.36612 17.1339C5.1317 16.8995 5 16.5815 5 16.25C5 15.9185 5.1317 15.6005 5.36612 15.3661C5.60054 15.1317 5.91848 15 6.25 15H33.75C34.0815 15 34.3995 15.1317 34.6339 15.3661C34.8683 15.6005 35 15.9185 35 16.25Z" fill="#A49781"/>
</svg>
