<svg width="16" height="16" viewBox="0 0 16 16" fill="none" xmlns="http://www.w3.org/2000/svg">
<path d="M9.33333 7.99984L7 9.33317V6.6665L9.33333 7.99984Z" fill="white" stroke="white" stroke-linecap="round" stroke-linejoin="round"/>
<path d="M1.3335 8.47194V7.52793C1.3335 5.59793 1.3335 4.6326 1.93683 4.01193C2.54083 3.3906 3.4915 3.36393 5.39216 3.30993C6.29216 3.2846 7.21216 3.2666 8.00016 3.2666C8.78816 3.2666 9.7075 3.2846 10.6082 3.30993C12.5088 3.36393 13.4595 3.3906 14.0628 4.01193C14.6662 4.63327 14.6668 5.5986 14.6668 7.52793V8.47127C14.6668 10.4019 14.6668 11.3666 14.0635 11.9879C13.4595 12.6086 12.5095 12.6359 10.6082 12.6893C9.70816 12.7153 8.78816 12.7333 8.00016 12.7333C7.21216 12.7333 6.29283 12.7153 5.39216 12.6893C3.4915 12.6359 2.54083 12.6093 1.93683 11.9879C1.33283 11.3666 1.3335 10.4013 1.3335 8.47194Z" stroke="white"/>
</svg>
